<svg viewBox="0 0 216 164.3" xmlns="http://www.w3.org/2000/svg"><path d="m0 43.23v-1.09h5.82v.65c0 5 2.83 7.61 7.78 7.61 3.43 0 5.71-1.2 6.8-3.1.49-.87.76-1.85.76-2.99 0-.92-.16-1.69-.6-2.45-.92-1.58-2.77-2.72-5.98-3.32l-4.19-.76c-4.19-.76-7.18-2.56-8.7-5.27-.82-1.47-1.25-3.15-1.25-5.11 0-2.12.54-4.02 1.47-5.65 2.12-3.7 6.42-5.93 12.07-5.93 8.1 0 13.38 4.62 13.38 12.13v1.09h-5.82v-.65c0-4.89-2.83-7.45-7.78-7.45-3.43 0-5.71 1.2-6.8 3.1-.49.87-.76 1.85-.76 2.99 0 .92.16 1.69.6 2.45.92 1.58 2.77 2.66 5.98 3.26l4.19.81c4.19.76 7.18 2.61 8.7 5.33.82 1.47 1.25 3.15 1.25 5.11 0 2.12-.49 4.08-1.41 5.71-2.12 3.7-6.47 5.82-12.13 5.82-8.1 0-13.38-4.68-13.38-12.29z" fill="#fff"/><path d="m37.68 54.7v-38.06h5.44v38.06z" fill="#fff"/><path d="m55.08 54.7v-38.06h13.32c8.59 0 15.01 4.19 17.56 11.42.76 2.28 1.2 4.79 1.2 7.61s-.43 5.44-1.25 7.72c-2.56 7.18-8.92 11.31-17.51 11.31zm5.44-5.16h8.43c5.71 0 9.79-3.21 11.53-8.05.65-1.74.98-3.7.98-5.82s-.33-4.13-1.03-5.93c-1.74-4.78-5.82-7.94-11.47-7.94h-8.43v27.73z" fill="#fff"/><path d="m96.68 54.7v-38.06h22.18v5.17h-16.75v11.2h16.2v5.17h-16.2v11.36h16.75v5.17h-22.18z" fill="#fff"/><path d="m7.23 91.99c-.87-2.34-1.3-5-1.3-7.83s.43-5.49 1.3-7.83c2.72-7.34 9.3-12.02 18-12.02s15.28 4.68 18 12.02c.87 2.34 1.3 5 1.3 7.83s-.43 5.49-1.3 7.83c-2.66 7.29-9.14 12.02-17.94 12.02s-15.28-4.51-18.05-12.02zm30.62-1.96c.65-1.79.98-3.75.98-5.87s-.33-4.08-.98-5.87c-1.96-5.38-6.47-8.81-12.61-8.81s-10.66 3.42-12.61 8.81c-.65 1.79-.98 3.75-.98 5.87s.33 4.08.98 5.87c1.96 5.38 6.47 8.81 12.61 8.81s10.6-3.26 12.61-8.81z" fill="#fff"/><path d="m53.51 89.43v-24.31h5.71v24.14c0 5.87 3.32 9.41 8.86 9.41s8.86-3.53 8.86-9.41v-24.14h5.71v24.31c0 9.03-5.55 14.57-14.57 14.57s-14.57-5.55-14.57-14.57z" fill="#fff"/><path d="m118.87 65.12v5.16h-11.85v32.9h-5.44v-32.9h-11.85v-5.16h29.15z" fill="#fff"/><path d="m133.85 0v9.89c4.89 0 8.85 2.41 8.85 5.38s-3.96 5.37-8.85 5.38v52.7c4.86.01 8.8 3.96 8.8 8.82s-3.94 8.81-8.8 8.82v52.7c4.89 0 8.85 2.41 8.85 5.38s-3.96 5.37-8.85 5.38v9.85c45.37 0 82.15-36.78 82.15-82.15s-36.78-82.15-82.15-82.15zm25.5 116.77c-4.87 0-8.82-3.95-8.82-8.82s3.95-8.82 8.82-8.82 8.82 3.95 8.82 8.82-3.95 8.82-8.82 8.82zm0-51.3c-4.87 0-8.82-3.95-8.82-8.82s3.95-8.82 8.82-8.82 8.82 3.95 8.82 8.82-3.95 8.82-8.82 8.82zm25.59 67.82c-3.46 3.46-7.98 4.57-10.08 2.46-2.1-2.1-1-6.61 2.46-10.08 3.46-3.46 7.98-4.57 10.08-2.46 2.1 2.1 1 6.61-2.46 10.08zm2.47-92.15c-2.1 2.1-6.61 1-10.08-2.46-3.46-3.46-4.57-7.98-2.46-10.08s6.61-1 10.08 2.46c3.46 3.46 4.57 7.98 2.46 10.08zm13.32 49.9c-2.97 0-5.38-3.97-5.38-8.87s2.41-8.87 5.38-8.87 5.38 3.97 5.38 8.87-2.41 8.87-5.38 8.87z" fill="#c5f381"/><g fill="#fff"><path d="m10.96 118.66c0 .82-.18 1.55-.53 2.15-.7 1.25-2.15 2-3.95 2h-2.7v5.42h-2.43v-13.7h5.13c1.8 0 3.25.72 3.95 1.98.35.61.53 1.33.53 2.15zm-2.46 0c0-.37-.08-.7-.25-1.04-.31-.53-.96-.88-1.88-.88h-2.58v3.84h2.58c.92 0 1.57-.35 1.88-.88.18-.33.25-.67.25-1.04z"/><path d="m13.92 128.23v-13.7h2.43v13.7z"/><path d="m20.03 124.2c-.31-.84-.47-1.8-.47-2.82s.16-1.98.47-2.82c.98-2.66 3.37-4.35 6.44-4.35 3.52 0 6.09 2.05 6.28 5.25h-2.51c-.22-1.78-1.7-2.98-3.76-2.98-1.94 0-3.41 1.12-4.05 2.9-.21.61-.33 1.27-.33 2s.12 1.39.33 2c.65 1.78 2.11 2.9 3.99 2.9 2.02 0 3.39-1.17 3.62-2.98h2.49c-.23 3.09-2.56 5.25-6.2 5.25-2.94 0-5.32-1.68-6.3-4.35z"/><path d="m46.85 114.53-4.95 6.32 4.85 7.38h-2.96l-3.6-5.64-1.74 2.19v3.44h-2.43v-13.7h2.43v6.13l-.67 1.49h.33l5.93-7.61h2.8z"/><path d="m49.55 128.23v-13.7h2.43v11.43h5.79v2.27z"/><path d="m60.67 128.23v-13.7h8.22v2.27h-5.79v3.44h5.6v2.23h-5.6v3.48h5.79v2.27h-8.22z"/><path d="m78.99 121.56c1.16.1 1.98.59 2.43 1.39.25.43.41 1 .41 1.66s-.16 1.27-.43 1.76c-.67 1.17-2.05 1.86-3.97 1.86h-4.99v-13.7h4.99c1.92 0 3.31.68 3.97 1.86.27.49.43 1.1.43 1.76s-.16 1.23-.41 1.66c-.45.8-1.27 1.27-2.43 1.39v.35zm-4.17-4.84v3.62h2.31c.94 0 1.62-.25 1.96-.82.16-.27.23-.59.23-.98 0-.41-.06-.72-.21-1-.35-.57-1.02-.82-1.98-.82zm4.5 7.5c0-.39-.08-.7-.23-.98-.33-.57-1.02-.82-1.96-.82h-2.31v3.62h2.31c.96 0 1.62-.25 1.98-.82.16-.27.21-.59.21-1z"/><path d="m94.16 128.23-1.45-4.44h-4.99l-1.45 4.44h-2.58l4.66-13.7h3.74l4.66 13.7h-2.58zm-5.69-6.69h3.5l-1.45-4.42-.14-1.19h-.33l-.14 1.19-1.45 4.42z"/><path d="m99.53 128.23v-13.7h2.43v11.43h5.79v2.27z"/><path d="m110.65 128.23v-13.7h2.43v11.43h5.79v2.27z"/><path d="m29.41 144.59c-.31-.84-.47-1.8-.47-2.82s.16-1.98.47-2.82c.98-2.66 3.37-4.35 6.44-4.35 3.52 0 6.09 2.05 6.28 5.25h-2.51c-.21-1.78-1.7-2.98-3.76-2.98-1.94 0-3.41 1.12-4.05 2.9-.22.61-.33 1.27-.33 2s.12 1.39.33 2c.65 1.78 2.11 2.9 3.99 2.9 2.02 0 3.39-1.17 3.62-2.98h2.49c-.23 3.09-2.56 5.25-6.21 5.25-2.94 0-5.32-1.68-6.3-4.35z"/><path d="m45.4 148.63v-13.7h8.22v2.27h-5.79v3.44h5.6v2.23h-5.6v3.48h5.79v2.27h-8.22z"/><path d="m57.16 148.63v-13.7h3.68l4.21 9.22.45 2.9h.33v-12.12h2.31v13.7h-3.68l-4.23-9.22-.43-2.9h-.33v12.12z"/><path d="m81.6 134.93v2.27h-4.19v11.43h-2.43v-11.43h-4.19v-2.27h10.8z"/><path d="m84.24 148.63v-13.7h8.22v2.27h-5.79v3.44h5.6v2.23h-5.6v3.48h5.79v2.27h-8.22z"/><path d="m102.7 148.63-3.48-5.81h-.78v5.81h-2.43v-13.7h5.09c1.92 0 3.33.61 4.03 1.82.31.55.49 1.23.49 2.07 0 .76-.16 1.35-.47 1.88-.63 1.08-1.94 1.62-3.56 1.72v.29l.63.27 3.44 5.64h-2.96zm-4.27-11.49v3.62h2.66c.84 0 1.49-.27 1.82-.84.16-.25.23-.59.23-.98s-.08-.68-.21-.94c-.33-.59-.98-.86-1.84-.86z"/><path d="m108.14 144.48v-.35h2.51v.21c0 1.61.92 2.45 2.51 2.45 1.08 0 1.82-.37 2.17-1 .16-.27.23-.59.23-.94 0-.29-.04-.55-.18-.78-.29-.51-.9-.88-1.96-1.08l-1.59-.29c-1.47-.27-2.54-.92-3.09-1.9-.31-.55-.47-1.19-.47-1.94 0-.78.19-1.49.53-2.09.78-1.35 2.37-2.15 4.44-2.15 3.03 0 4.95 1.64 4.95 4.42v.35h-2.51v-.23c0-1.57-.92-2.39-2.51-2.39-1.08 0-1.82.37-2.17 1-.16.27-.23.59-.23.94 0 .29.04.53.18.78.29.49.9.84 1.96 1.04l1.57.31c1.49.29 2.56.96 3.11 1.94.31.55.47 1.17.47 1.92 0 .8-.18 1.53-.53 2.11-.76 1.35-2.37 2.13-4.44 2.13-3.03 0-4.95-1.66-4.95-4.46z"/></g></svg>